<svg width="34" height="34" viewBox="0 0 34 34" fill="none" xmlns="http://www.w3.org/2000/svg">
<path fill-rule="evenodd" clip-rule="evenodd" d="M9.99127 0.102C11.8046 0.0188854 12.3826 0 17 0C21.6183 0 22.1954 0.0198282 24.0077 0.102C25.8182 0.184172 27.0546 0.472229 28.1359 0.8925C29.2701 1.31952 30.2976 1.9886 31.1468 2.85317C32.0115 3.70229 32.6806 4.7298 33.1075 5.86406C33.5277 6.94544 33.8149 8.18173 33.898 9.99127C33.9811 11.8046 34 12.3826 34 17C34 21.6174 33.9802 22.1954 33.898 24.0088C33.8158 25.8182 33.5277 27.0546 33.1075 28.1359C32.6731 29.2533 32.0912 30.2024 31.1468 31.1468C30.2977 32.0115 29.2701 32.6806 28.1359 33.1075C27.0546 33.5277 25.8182 33.8149 24.0088 33.898C22.1954 33.9811 21.6174 34 17 34C12.3826 34 11.8046 33.9802 9.99127 33.898C8.18173 33.8158 6.94544 33.5277 5.86406 33.1075C4.74677 32.6731 3.79761 32.0912 2.85317 31.1468C1.98844 30.2977 1.31932 29.2701 0.8925 28.1359C0.472229 27.0546 0.185115 25.8182 0.102 24.0088C0.0188854 22.1954 0 21.6183 0 17C0 12.3817 0.0198282 11.8046 0.102 9.99223C0.184172 8.18173 0.472229 6.94544 0.8925 5.86406C1.31952 4.72988 1.9886 3.70241 2.85317 2.85317C3.70228 1.98844 4.72979 1.31932 5.86406 0.8925C6.94544 0.472229 8.18173 0.185115 9.99127 0.102ZM23.8699 3.162C22.0773 3.08077 21.539 3.06283 17 3.06283C12.461 3.06283 11.9227 3.08077 10.1301 3.162C8.47261 3.23756 7.57256 3.51427 6.97377 3.74756C6.18044 4.05544 5.61377 4.42377 5.01877 5.01877C4.42473 5.61377 4.05544 6.18044 3.74756 6.97377C3.51427 7.57256 3.23756 8.47261 3.162 10.1301C3.08077 11.9227 3.06283 12.461 3.06283 17C3.06283 21.539 3.08077 22.0773 3.162 23.8699C3.23756 25.5274 3.51427 26.4274 3.74756 27.0263C4.0199 27.7647 4.45429 28.4327 5.01877 28.9813C5.56725 29.5457 6.23531 29.9801 6.97377 30.2524C7.57256 30.4858 8.47261 30.7624 10.1301 30.838C11.9227 30.9193 12.4601 30.9372 17 30.9372C21.5399 30.9372 22.0773 30.9193 23.8699 30.838C25.5274 30.7624 26.4274 30.4858 27.0263 30.2524C27.8196 29.9446 28.3863 29.5763 28.9813 28.9813C29.5457 28.4328 29.9801 27.7647 30.2524 27.0263C30.4858 26.4274 30.7624 25.5274 30.838 23.8699C30.9193 22.0773 30.9372 21.539 30.9372 17C30.9372 12.461 30.9193 11.9227 30.838 10.1301C30.7624 8.47261 30.4858 7.57256 30.2524 6.97377C29.9446 6.18044 29.5763 5.61377 28.9813 5.01877C28.3863 4.42473 27.8196 4.05544 27.0263 3.74756C26.4274 3.51427 25.5274 3.23756 23.8699 3.162ZM14.8294 22.2405C15.5176 22.5256 16.2551 22.6723 17 22.6723C18.5045 22.6723 19.9472 22.0747 21.0109 21.0109C22.0748 19.9472 22.6724 18.5043 22.6724 17C22.6724 15.4957 22.0748 14.0528 21.0109 12.9891C19.9472 11.9253 18.5045 11.3277 17 11.3277C16.2551 11.3277 15.5176 11.4744 14.8294 11.7594C14.1411 12.0445 13.5158 12.4623 12.9891 12.9891C12.4624 13.5158 12.0445 14.1411 11.7595 14.8293C11.4744 15.5174 11.3277 16.2551 11.3277 17C11.3277 17.7449 11.4744 18.4826 11.7595 19.1707C12.0445 19.8589 12.4624 20.4842 12.9891 21.0109C13.5158 21.5376 14.1411 21.9555 14.8294 22.2405ZM10.8214 10.8213C12.46 9.1826 14.6826 8.26198 17 8.26198C19.3176 8.26198 21.5401 9.1826 23.1787 10.8213C24.8174 12.46 25.738 14.6826 25.738 17C25.738 19.3174 24.8174 21.5399 23.1787 23.1787C21.5401 24.8174 19.3176 25.738 17 25.738C14.6826 25.738 12.46 24.8174 10.8214 23.1787C9.18266 21.5399 8.26205 19.3174 8.26205 17C8.26205 14.6826 9.18266 12.46 10.8214 10.8213ZM27.6755 9.56386C28.0628 9.17649 28.2804 8.65113 28.2804 8.10333C28.2804 7.55551 28.0628 7.03015 27.6755 6.6428C27.2881 6.25544 26.7628 6.03783 26.2149 6.03783C25.6672 6.03783 25.1418 6.25544 24.7545 6.6428C24.367 7.03015 24.1494 7.55551 24.1494 8.10333C24.1494 8.65113 24.367 9.17649 24.7545 9.56386C25.1418 9.95121 25.6672 10.1688 26.2149 10.1688C26.7628 10.1688 27.2881 9.95121 27.6755 9.56386Z" fill="#fff"/>
</svg>
