<svg width="110" height="110" viewBox="0 0 110 110" fill="none" xmlns="http://www.w3.org/2000/svg">
<path d="M50.9066 41.6667H45.6933C43 41.6667 41.6666 43 41.6666 45.6933V50.92C41.6666 53.6667 43 55 45.6933 54.9333H50.92C53.6666 55 55 53.6667 54.9333 50.9067V45.6933C55 43 53.6666 41.6667 50.9066 41.6667ZM51.0133 52.0133C50.1066 52.0133 49.2266 51.6667 48.4933 51.0533C47.6666 51.6533 46.6666 52.0133 45.5866 52.0133C45.04 52.0133 44.5866 51.56 44.5866 51.0133C44.5866 50.4667 45.04 50.0133 45.5866 50.0133C46.9466 50.0133 48.08 49.08 48.4933 47.8H45.5866C45.04 47.8 44.5866 47.3467 44.5866 46.8C44.5866 46.2533 45.04 45.8 45.5866 45.8H47.3066C47.36 45.2933 47.7733 44.8933 48.2933 44.8933C48.8133 44.8933 49.2266 45.2933 49.28 45.8H49.6266C49.64 45.8 49.6533 45.8 49.6533 45.8H49.68H51C51.5466 45.8 52 46.2533 52 46.8C52 47.3467 51.56 47.8 51 47.8H50.56C50.44 48.44 50.1866 49.04 49.8533 49.5867C50.2133 49.8533 50.6 50.0133 51.0133 50.0133C51.56 50.0133 52.0133 50.4667 52.0133 51.0133C52.0133 51.56 51.56 52.0133 51.0133 52.0133Z" fill="white"/>
<path d="M51 69.3333C45.3066 69.3333 40.6666 64.6933 40.6666 59C40.6666 58.4533 41.12 58 41.6666 58C42.2133 58 42.6666 58.4533 42.6666 59C42.6666 62.9467 45.4133 66.2533 49.1066 67.12L48.7466 66.52C48.4666 66.04 48.6133 65.4267 49.0933 65.1467C49.56 64.8667 50.1866 65.0133 50.4666 65.4933L51.8666 67.8267C52.0533 68.1333 52.0533 68.52 51.88 68.8267C51.6933 69.1333 51.36 69.3333 51 69.3333Z" fill="white"/>
<path d="M68.3333 52C67.7866 52 67.3333 51.5467 67.3333 51C67.3333 47.0533 64.5866 43.7467 60.8933 42.88L61.2533 43.48C61.5333 43.96 61.3866 44.5733 60.9066 44.8533C60.44 45.1333 59.8133 44.9867 59.5333 44.5067L58.1333 42.1733C57.9466 41.8667 57.9466 41.48 58.12 41.1733C58.3066 40.8667 58.64 40.6667 59 40.6667C64.6933 40.6667 69.3333 45.3067 69.3333 51C69.3333 51.5467 68.88 52 68.3333 52Z" fill="white"/>
<path d="M61.5598 54.8C57.8265 54.8 54.7865 57.8267 54.7865 61.5733C54.7865 65.3067 57.8132 68.3467 61.5598 68.3467C65.2932 68.3467 68.3332 65.32 68.3332 61.5733C68.3332 57.8267 65.3065 54.8 61.5598 54.8ZM64.8665 64.7867C64.3732 65.0267 63.7732 64.84 63.5198 64.3333L63.2932 63.88H59.8398L59.6132 64.3333C59.4398 64.68 59.0798 64.88 58.7198 64.88C58.5732 64.88 58.4132 64.84 58.2798 64.7733C57.7865 64.52 57.5865 63.92 57.8265 63.4267L60.6798 57.7333C60.8532 57.4 61.1998 57.1867 61.5732 57.1867C61.9465 57.1867 62.2932 57.4 62.4665 57.7467L65.3198 63.44C65.5598 63.9333 65.3598 64.5333 64.8665 64.7867Z" fill="white"/>
<path d="M60.8398 61.88H62.2932L61.5598 60.4267L60.8398 61.88Z" fill="white"/>
</svg>
