<svg width="110" height="110" viewBox="0 0 110 110" fill="none" xmlns="http://www.w3.org/2000/svg">
<path d="M57.2 29.3333V60.8667H25.3L67.4667 82.3167H100.1V50.4167L57.2 29.3333Z" fill="white"/>
<path d="M11.803 29.3333V22.0733H15.334C16.2287 22.0807 16.8887 22.253 17.314 22.5903C17.7393 22.9203 17.952 23.4007 17.952 24.0313C17.952 24.442 17.831 24.7977 17.589 25.0983C17.347 25.3917 16.9767 25.5787 16.478 25.6593V25.6703C17.0353 25.7437 17.4497 25.938 17.721 26.2533C17.9997 26.5613 18.139 26.9353 18.139 27.3753C18.139 27.9987 17.919 28.4827 17.479 28.8273C17.039 29.1647 16.379 29.3333 15.499 29.3333H11.803ZM13.629 28.0023H15.18C15.5247 28.0023 15.7813 27.9327 15.95 27.7933C16.1187 27.654 16.203 27.4523 16.203 27.1883C16.203 26.9317 16.1187 26.7373 15.95 26.6053C15.7813 26.466 15.5247 26.3963 15.18 26.3963H13.629V28.0023ZM13.629 25.0433H15.004C15.6787 25.0433 16.016 24.7793 16.016 24.2513C16.016 23.7233 15.6787 23.4593 15.004 23.4593H13.629V25.0433ZM21.2145 27.8703H24.8555V29.3333H19.3225V22.0733H21.2145V27.8703ZM32.5397 29.3333H30.5927L30.0867 27.6943H27.6007L27.0837 29.3333H25.1807L27.7327 22.0733H29.9987L32.5397 29.3333ZM27.9527 26.4073H29.7347L28.8437 23.4703L27.9527 26.4073ZM39.5505 27.2543C39.4112 27.7603 39.1875 28.1783 38.8795 28.5083C38.5715 28.831 38.2048 29.0693 37.7795 29.2233C37.3542 29.37 36.8848 29.4433 36.3715 29.4433C35.6382 29.4433 35.0038 29.2967 34.4685 29.0033C33.9332 28.7027 33.5225 28.2737 33.2365 27.7163C32.9505 27.159 32.8075 26.488 32.8075 25.7033C32.8075 24.9187 32.9505 24.2477 33.2365 23.6903C33.5225 23.133 33.9332 22.7077 34.4685 22.4143C35.0038 22.1137 35.6345 21.9633 36.3605 21.9633C36.8665 21.9633 37.3322 22.0367 37.7575 22.1833C38.1828 22.3227 38.5422 22.539 38.8355 22.8323C39.1288 23.1257 39.3378 23.5033 39.4625 23.9653L37.8015 24.6363C37.6988 24.1817 37.5302 23.87 37.2955 23.7013C37.0682 23.5327 36.7785 23.4483 36.4265 23.4483C36.0818 23.4483 35.7812 23.5327 35.5245 23.7013C35.2752 23.87 35.0808 24.123 34.9415 24.4603C34.8095 24.7903 34.7435 25.2047 34.7435 25.7033C34.7435 26.1947 34.8058 26.609 34.9305 26.9463C35.0552 27.2837 35.2422 27.5367 35.4915 27.7053C35.7482 27.874 36.0635 27.9583 36.4375 27.9583C36.7895 27.9583 37.0865 27.863 37.3285 27.6723C37.5778 27.4743 37.7465 27.1737 37.8345 26.7703L39.5505 27.2543ZM47.1918 22.0733L43.7818 26.1543L43.6608 25.8683L41.9338 27.9693L41.5708 26.4403L45.0908 22.0733H47.1918ZM42.4948 22.0733V29.3333H40.6028V22.0733H42.4948ZM44.3978 24.4713L47.3238 29.3333H45.1788L42.9788 25.5273L44.3978 24.4713ZM18.238 40.0877C18.0987 40.5937 17.875 41.0117 17.567 41.3417C17.259 41.6643 16.8923 41.9027 16.467 42.0567C16.0417 42.2033 15.5723 42.2767 15.059 42.2767C14.3257 42.2767 13.6913 42.13 13.156 41.8367C12.6207 41.536 12.21 41.107 11.924 40.5497C11.638 39.9923 11.495 39.3213 11.495 38.5367C11.495 37.752 11.638 37.081 11.924 36.5237C12.21 35.9663 12.6207 35.541 13.156 35.2477C13.6913 34.947 14.322 34.7967 15.048 34.7967C15.554 34.7967 16.0197 34.87 16.445 35.0167C16.8703 35.156 17.2297 35.3723 17.523 35.6657C17.8163 35.959 18.0253 36.3367 18.15 36.7987L16.489 37.4697C16.3863 37.015 16.2177 36.7033 15.983 36.5347C15.7557 36.366 15.466 36.2817 15.114 36.2817C14.7693 36.2817 14.4687 36.366 14.212 36.5347C13.9627 36.7033 13.7683 36.9563 13.629 37.2937C13.497 37.6237 13.431 38.038 13.431 38.5367C13.431 39.028 13.4933 39.4423 13.618 39.7797C13.7427 40.117 13.9297 40.37 14.179 40.5387C14.4357 40.7073 14.751 40.7917 15.125 40.7917C15.477 40.7917 15.774 40.6963 16.016 40.5057C16.2653 40.3077 16.434 40.007 16.522 39.6037L18.238 40.0877ZM25.6373 34.9067V39.2077C25.6373 40.2343 25.3623 41.0043 24.8123 41.5177C24.2696 42.0237 23.463 42.2767 22.3923 42.2767C21.329 42.2767 20.5223 42.0237 19.9723 41.5177C19.4223 41.0043 19.1473 40.2343 19.1473 39.2077V34.9067H21.0503V39.2407C21.0503 39.7613 21.1603 40.15 21.3803 40.4067C21.6076 40.6633 21.945 40.7917 22.3923 40.7917C22.847 40.7917 23.1843 40.6633 23.4043 40.4067C23.6316 40.15 23.7453 39.7613 23.7453 39.2407V34.9067H25.6373ZM27.0999 42.1667V34.9067H30.6309C31.5256 34.914 32.1856 35.0863 32.6109 35.4237C33.0362 35.7537 33.2489 36.234 33.2489 36.8647C33.2489 37.2753 33.1279 37.631 32.8859 37.9317C32.6439 38.225 32.2736 38.412 31.7749 38.4927V38.5037C32.3322 38.577 32.7466 38.7713 33.0179 39.0867C33.2966 39.3947 33.4359 39.7687 33.4359 40.2087C33.4359 40.832 33.2159 41.316 32.7759 41.6607C32.3359 41.998 31.6759 42.1667 30.7959 42.1667H27.0999ZM28.9259 40.8357H30.4769C30.8216 40.8357 31.0782 40.766 31.2469 40.6267C31.4156 40.4873 31.4999 40.2857 31.4999 40.0217C31.4999 39.765 31.4156 39.5707 31.2469 39.4387C31.0782 39.2993 30.8216 39.2297 30.4769 39.2297H28.9259V40.8357ZM28.9259 37.8767H30.3009C30.9756 37.8767 31.3129 37.6127 31.3129 37.0847C31.3129 36.5567 30.9756 36.2927 30.3009 36.2927H28.9259V37.8767ZM34.6194 42.1667V34.9067H40.2736V36.3697H36.5114V37.8437H39.5036V39.2187H36.5114V40.7037H40.4166V42.1667H34.6194ZM14.806 55.11C14.1607 55.11 13.585 54.967 13.079 54.681C12.5803 54.395 12.1917 53.9733 11.913 53.416C11.6343 52.8587 11.495 52.1803 11.495 51.381C11.495 50.5963 11.6417 49.9253 11.935 49.368C12.2283 48.8107 12.6463 48.3817 13.189 48.081C13.739 47.7803 14.3843 47.63 15.125 47.63C15.9463 47.63 16.61 47.7803 17.116 48.081C17.622 48.3743 18.0143 48.8437 18.293 49.489L16.544 50.182C16.4487 49.808 16.28 49.5367 16.038 49.368C15.796 49.1993 15.4953 49.115 15.136 49.115C14.7767 49.115 14.4687 49.203 14.212 49.379C13.9553 49.5477 13.761 49.8007 13.629 50.138C13.497 50.468 13.431 50.8787 13.431 51.37C13.431 51.8833 13.497 52.3123 13.629 52.657C13.7683 53.0017 13.97 53.2583 14.234 53.427C14.5053 53.5883 14.839 53.669 15.235 53.669C15.4477 53.669 15.642 53.6433 15.818 53.592C15.994 53.5407 16.148 53.4673 16.28 53.372C16.412 53.2693 16.5147 53.1447 16.588 52.998C16.6613 52.844 16.698 52.6643 16.698 52.459V52.349H15.037V51.084H18.304V55H17.017L16.874 53.295L17.182 53.559C17.028 54.0577 16.7493 54.4427 16.346 54.714C15.95 54.978 15.4367 55.11 14.806 55.11ZM26.3522 55H24.4052L23.8992 53.361H21.4132L20.8962 55H18.9932L21.5452 47.74H23.8112L26.3522 55ZM21.7652 52.074H23.5472L22.6562 49.137L21.7652 52.074ZM35.6005 47.74V55H33.9285V51.667L33.9835 49.434H33.9615L32.1685 55H30.6395L28.8465 49.434H28.8245L28.8795 51.667V55H27.1965V47.74H29.8915L31.0355 51.436L31.4425 52.976H31.4645L31.8825 51.447L33.0155 47.74H35.6005ZM37.2082 55V47.74H42.8622V49.203H39.1002V50.677H42.0922V52.052H39.1002V53.537H43.0052V55H37.2082ZM46.9858 47.63C47.6604 47.63 48.2544 47.7363 48.7678 47.949C49.2884 48.1543 49.7394 48.4587 50.1208 48.862L49.2078 50.083C48.8924 49.753 48.5514 49.5073 48.1848 49.346C47.8254 49.1773 47.4148 49.093 46.9528 49.093C46.6814 49.093 46.4614 49.1223 46.2928 49.181C46.1241 49.2397 46.0031 49.3203 45.9298 49.423C45.8564 49.5257 45.8198 49.643 45.8198 49.775C45.8198 49.929 45.8894 50.061 46.0288 50.171C46.1754 50.2737 46.4101 50.3617 46.7328 50.435L47.9538 50.71C48.6798 50.8787 49.2114 51.1243 49.5488 51.447C49.8861 51.7697 50.0548 52.1987 50.0548 52.734C50.0548 53.2473 49.9228 53.6837 49.6588 54.043C49.3948 54.395 49.0318 54.6627 48.5698 54.846C48.1078 55.022 47.5798 55.11 46.9858 55.11C46.5018 55.11 46.0398 55.0587 45.5998 54.956C45.1598 54.846 44.7638 54.692 44.4118 54.494C44.0598 54.296 43.7628 54.0687 43.5208 53.812L44.4338 52.547C44.6171 52.7597 44.8408 52.9503 45.1048 53.119C45.3761 53.2803 45.6694 53.4087 45.9848 53.504C46.3074 53.5993 46.6338 53.647 46.9638 53.647C47.2204 53.647 47.4331 53.6213 47.6018 53.57C47.7778 53.5187 47.9061 53.4417 47.9868 53.339C48.0674 53.2363 48.1078 53.1153 48.1078 52.976C48.1078 52.822 48.0528 52.6937 47.9428 52.591C47.8328 52.481 47.6238 52.3893 47.3158 52.316L45.9738 52.019C45.5631 51.9237 45.1964 51.799 44.8738 51.645C44.5584 51.4837 44.3091 51.271 44.1258 51.007C43.9424 50.7357 43.8508 50.3983 43.8508 49.995C43.8508 49.5403 43.9754 49.137 44.2248 48.785C44.4741 48.4257 44.8334 48.1433 45.3028 47.938C45.7721 47.7327 46.3331 47.63 46.9858 47.63Z" fill="white"/>
</svg>
